<?xml version="1.0" encoding="UTF-8"?>
<svg width="32" height="32" fill="#000000" viewBox="0 0 172 172" xmlns="http://www.w3.org/2000/svg">
<g font-family="none" font-size="none" font-weight="none" stroke-dasharray="" stroke-miterlimit="10" text-anchor="none" style="mix-blend-mode:normal">
<path d="m0 172v-172h172v172z" fill="none"/>
<g fill="#626262">
<path d="m43 26.875c-8.8394 0-16.125 7.2856-16.125 16.125v86c0 8.8394 7.2856 16.125 16.125 16.125h86c8.8394 0 16.125-7.2856 16.125-16.125v-86c0-8.8394-7.2856-16.125-16.125-16.125zm69.875 16.125h16.125v16.125h-16.125zm-26.875 21.5c11.947 0 21.5 9.5532 21.5 21.5s-9.5532 21.5-21.5 21.5-21.5-9.5532-21.5-21.5 9.5532-21.5 21.5-21.5zm-48.375 10.75h17.973c-1.1968 3.3594-1.8477 6.9917-1.8477 10.75 0 17.742 14.508 32.25 32.25 32.25s32.25-14.508 32.25-32.25c0-3.7583-0.65088-7.3906-1.8477-10.75h17.973v53.75c0 3.0444-2.3306 5.375-5.375 5.375h-86c-3.0444 0-5.375-2.3306-5.375-5.375z"/>
</g>
</g>
</svg>
