<?xml version="1.0" encoding="UTF-8"?>
<svg width="24" height="24" fill="#000000" viewBox="0 0 172 172" xmlns="http://www.w3.org/2000/svg">
<g font-family="none" font-size="none" font-weight="none" stroke-dasharray="" stroke-miterlimit="10" text-anchor="none" style="mix-blend-mode:normal">
<path d="m0 172v-172h172v172z" fill="none"/>
<g fill="#626262">
<path d="m172 30.822c-6.4388 2.8555-12.906 5.0111-20.072 5.7389 7.1667-4.3112 12.906-11.478 15.761-19.372-7.1667 4.3112-14.333 7.1667-22.2 8.6224-7.1667-7.1667-16.489-11.478-26.511-11.478-19.372 0-35.133 15.761-35.133 35.105 0 2.8835 0 5.7389 0.72786 7.8945-29.395-1.4277-55.178-15.061-72.395-36.561-3.5833 5.0391-5.0111 11.478-5.0111 17.917 0 12.206 6.4388 22.956 15.761 29.395-5.7389-0.72786-11.45-2.1556-15.761-4.3112v0.72786c0 17.189 12.178 31.522 27.939 34.406-2.8555 0.69988-5.7109 1.4277-9.2943 1.4277-2.1556 0-4.3112 0-6.4668-0.72786 4.3112 14.333 17.217 24.383 32.978 24.383-12.178 9.3223-27.239 15.033-43.728 15.033-2.8555 0-5.7389 0-8.5944-0.69988 15.761 10.022 34.406 15.761 53.75 15.761 65.228 0 100.33-53.75 100.33-100.33v-4.3112c7.1667-5.0111 12.906-11.45 17.917-18.617"/>
</g>
</g>
</svg>
